<svg xmlns="http://www.w3.org/2000/svg" xmlns:xlink="http://www.w3.org/1999/xlink" version="1.1" data-diagram-type="DESCRIPTION" style="width:619px;height:613px;background:#FFFFFF;" width="619px" height="613px" viewBox="0 0 619 613" zoomAndPan="magnify" preserveAspectRatio="none" contentStyleType="text/css"><?plantuml 1.2026.8?><defs/><g font-family="sans-serif" lengthAdjust="spacing"><!--cluster Profesorado--><g class="cluster" data-qualified-name="Profesorado" id="ent0002" data-source-line="13"><path d="M411.43,6.602 L497.928,6.602 A3.75,3.75 0 0 1 500.428,9.102 L507.428,31.67 L602.05,31.67 A2.5,2.5 0 0 1 604.55,34.17 L604.55,218.102 A2.5,2.5 0 0 1 602.05,220.602 L411.43,220.602 A2.5,2.5 0 0 1 408.93,218.102 L408.93,9.102 A2.5,2.5 0 0 1 411.43,6.602" style="stroke:#000;stroke-width:1.5;" fill="none"/><line x1="408.93" y1="31.67" x2="507.428" y2="31.67" style="stroke:#000;stroke-width:1.5;"/><text x="412.93" y="23.568" fill="#000" font-size="14" textLength="85.498" font-weight="700">Profesorado</text></g><!--cluster Alumnado y público--><g class="cluster" data-qualified-name="Alumnado y p.blico" id="ent0005" data-source-line="18"><path d="M417.9,244.602 L556.995,244.602 A3.75,3.75 0 0 1 559.495,247.102 L566.495,269.67 L595.58,269.67 A2.5,2.5 0 0 1 598.08,272.17 L598.08,554.102 A2.5,2.5 0 0 1 595.58,556.602 L417.9,556.602 A2.5,2.5 0 0 1 415.4,554.102 L415.4,247.102 A2.5,2.5 0 0 1 417.9,244.602" style="stroke:#000;stroke-width:1.5;" fill="none"/><line x1="415.4" y1="269.67" x2="566.495" y2="269.67" style="stroke:#000;stroke-width:1.5;"/><text x="419.4" y="261.568" fill="#000" font-size="14" textLength="138.095" font-weight="700">Alumnado y público</text></g><!--cluster Calidad--><g class="cluster" data-qualified-name="Calidad" id="ent0009" data-source-line="24"><path d="M12.15,6.602 L64.964,6.602 A3.75,3.75 0 0 1 67.464,9.102 L74.464,31.67 L195.69,31.67 A2.5,2.5 0 0 1 198.19,34.17 L198.19,218.102 A2.5,2.5 0 0 1 195.69,220.602 L12.15,220.602 A2.5,2.5 0 0 1 9.65,218.102 L9.65,9.102 A2.5,2.5 0 0 1 12.15,6.602" style="stroke:#000;stroke-width:1.5;" fill="none"/><line x1="9.65" y1="31.67" x2="74.464" y2="31.67" style="stroke:#000;stroke-width:1.5;"/><text x="13.65" y="23.568" fill="#000" font-size="14" textLength="51.814" font-weight="700">Calidad</text></g><!--cluster Organización docente--><g class="cluster" data-qualified-name="Organizaci.n docente" id="ent0012" data-source-line="29"><path d="M18.1,244.602 L171.853,244.602 A3.75,3.75 0 0 1 174.353,247.102 L181.353,269.67 L189.73,269.67 A2.5,2.5 0 0 1 192.23,272.17 L192.23,456.102 A2.5,2.5 0 0 1 189.73,458.602 L18.1,458.602 A2.5,2.5 0 0 1 15.6,456.102 L15.6,247.102 A2.5,2.5 0 0 1 18.1,244.602" style="stroke:#000;stroke-width:1.5;" fill="none"/><line x1="15.6" y1="269.67" x2="181.353" y2="269.67" style="stroke:#000;stroke-width:1.5;"/><text x="19.6" y="261.568" fill="#000" font-size="14" textLength="152.753" font-weight="700">Organización docente</text></g><!--cluster Bibliografía--><g class="cluster" data-qualified-name="Bibliograf.a" id="ent0015" data-source-line="34"><path d="M8.5,482.602 L90.434,482.602 A3.75,3.75 0 0 1 92.934,485.102 L99.934,507.67 L199.34,507.67 A2.5,2.5 0 0 1 201.84,510.17 L201.84,596.102 A2.5,2.5 0 0 1 199.34,598.602 L8.5,598.602 A2.5,2.5 0 0 1 6,596.102 L6,485.102 A2.5,2.5 0 0 1 8.5,482.602" style="stroke:#000;stroke-width:1.5;" fill="none"/><line x1="6" y1="507.67" x2="99.934" y2="507.67" style="stroke:#000;stroke-width:1.5;"/><text x="10" y="499.568" fill="#000" font-size="14" textLength="80.934" font-weight="700">Bibliografía</text></g><!--entity MERITOS--><g class="entity" data-qualified-name="Profesorado.MERITOS" id="ent0003" data-source-line="14"><rect x="424.93" y="142.262" width="163.628" height="62.688" fill="#FFF" style="stroke:#424242;stroke-width:0.5;" rx="2.5" ry="2.5"/><rect x="568.558" y="147.262" width="15" height="10" fill="#FFF" style="stroke:#424242;stroke-width:0.5;"/><rect x="566.558" y="149.262" width="4" height="2" fill="#FFF" style="stroke:#424242;stroke-width:0.5;"/><rect x="566.558" y="153.262" width="4" height="2" fill="#FFF" style="stroke:#424242;stroke-width:0.5;"/><text x="439.93" y="176.159" fill="#000" font-size="13" textLength="58.071" font-weight="700">MERITOS</text><text x="439.93" y="191.727" fill="#000" font-size="11" textLength="123.628">Expediente del profesor</text></g><!--entity ACTIVITAT--><g class="entity" data-qualified-name="Profesorado.ACTIVITAT" id="ent0004" data-source-line="15"><rect x="440.75" y="44.262" width="131.981" height="62.688" fill="#FFF" style="stroke:#424242;stroke-width:0.5;" rx="2.5" ry="2.5"/><rect x="552.731" y="49.262" width="15" height="10" fill="#FFF" style="stroke:#424242;stroke-width:0.5;"/><rect x="550.731" y="51.262" width="4" height="2" fill="#FFF" style="stroke:#424242;stroke-width:0.5;"/><rect x="550.731" y="55.262" width="4" height="2" fill="#FFF" style="stroke:#424242;stroke-width:0.5;"/><text x="455.75" y="78.159" fill="#000" font-size="13" textLength="67.405" font-weight="700">ACTIVITAT</text><text x="455.75" y="93.727" fill="#000" font-size="11" textLength="91.981">Actividad docente</text></g><!--entity VITRINA--><g class="entity" data-qualified-name="Alumnado y p.blico.VITRINA" id="ent0006" data-source-line="19"><rect x="449.41" y="478.262" width="114.667" height="62.688" fill="#FFF" style="stroke:#424242;stroke-width:0.5;" rx="2.5" ry="2.5"/><rect x="544.077" y="483.262" width="15" height="10" fill="#FFF" style="stroke:#424242;stroke-width:0.5;"/><rect x="542.077" y="485.262" width="4" height="2" fill="#FFF" style="stroke:#424242;stroke-width:0.5;"/><rect x="542.077" y="489.262" width="4" height="2" fill="#FFF" style="stroke:#424242;stroke-width:0.5;"/><text x="464.41" y="512.159" fill="#000" font-size="13" textLength="54.158" font-weight="700">VITRINA</text><text x="464.41" y="527.727" fill="#000" font-size="11" textLength="74.667">Guías públicas</text></g><!--entity ASISTE--><g class="entity" data-qualified-name="Alumnado y p.blico.ASISTE" id="ent0007" data-source-line="20"><rect x="460.91" y="380.262" width="91.667" height="62.688" fill="#FFF" style="stroke:#424242;stroke-width:0.5;" rx="2.5" ry="2.5"/><rect x="532.577" y="385.262" width="15" height="10" fill="#FFF" style="stroke:#424242;stroke-width:0.5;"/><rect x="530.577" y="387.262" width="4" height="2" fill="#FFF" style="stroke:#424242;stroke-width:0.5;"/><rect x="530.577" y="391.262" width="4" height="2" fill="#FFF" style="stroke:#424242;stroke-width:0.5;"/><text x="475.91" y="414.159" fill="#000" font-size="13" textLength="43.16" font-weight="700">ASISTE</text><text x="475.91" y="429.727" fill="#000" font-size="11" textLength="51.667">Asistencia</text></g><!--entity FEDATARIO--><g class="entity" data-qualified-name="Alumnado y p.blico.FEDATARIO" id="ent0008" data-source-line="21"><rect x="431.4" y="282.262" width="150.681" height="62.688" fill="#FFF" style="stroke:#424242;stroke-width:0.5;" rx="2.5" ry="2.5"/><rect x="562.081" y="287.262" width="15" height="10" fill="#FFF" style="stroke:#424242;stroke-width:0.5;"/><rect x="560.081" y="289.262" width="4" height="2" fill="#FFF" style="stroke:#424242;stroke-width:0.5;"/><rect x="560.081" y="293.262" width="4" height="2" fill="#FFF" style="stroke:#424242;stroke-width:0.5;"/><text x="446.4" y="316.159" fill="#000" font-size="13" textLength="73.294" font-weight="700">FEDATARIO</text><text x="446.4" y="331.727" fill="#000" font-size="11" textLength="110.681">Certificación de guías</text></g><!--entity PRISMA--><g class="entity" data-qualified-name="Calidad.PRISMA" id="ent0010" data-source-line="25"><rect x="25.65" y="142.262" width="156.533" height="62.688" fill="#FFF" style="stroke:#424242;stroke-width:0.5;" rx="2.5" ry="2.5"/><rect x="162.183" y="147.262" width="15" height="10" fill="#FFF" style="stroke:#424242;stroke-width:0.5;"/><rect x="160.183" y="149.262" width="4" height="2" fill="#FFF" style="stroke:#424242;stroke-width:0.5;"/><rect x="160.183" y="153.262" width="4" height="2" fill="#FFF" style="stroke:#424242;stroke-width:0.5;"/><text x="40.65" y="176.159" fill="#000" font-size="13" textLength="50.076" font-weight="700">PRISMA</text><text x="40.65" y="191.727" fill="#000" font-size="11" textLength="116.533">Indicadores de calidad</text></g><!--entity PULSO--><g class="entity" data-qualified-name="Calidad.PULSO" id="ent0011" data-source-line="26"><rect x="32.98" y="44.262" width="141.881" height="62.688" fill="#FFF" style="stroke:#424242;stroke-width:0.5;" rx="2.5" ry="2.5"/><rect x="154.861" y="49.262" width="15" height="10" fill="#FFF" style="stroke:#424242;stroke-width:0.5;"/><rect x="152.861" y="51.262" width="4" height="2" fill="#FFF" style="stroke:#424242;stroke-width:0.5;"/><rect x="152.861" y="55.262" width="4" height="2" fill="#FFF" style="stroke:#424242;stroke-width:0.5;"/><text x="47.98" y="78.159" fill="#000" font-size="13" textLength="42.614" font-weight="700">PULSO</text><text x="47.98" y="93.727" fill="#000" font-size="11" textLength="101.881">Encuestas docentes</text></g><!--entity SIGHOR--><g class="entity" data-qualified-name="Organizaci.n docente.SIGHOR" id="ent0013" data-source-line="30"><rect x="58.72" y="380.262" width="90.388" height="62.688" fill="#FFF" style="stroke:#424242;stroke-width:0.5;" rx="2.5" ry="2.5"/><rect x="129.108" y="385.262" width="15" height="10" fill="#FFF" style="stroke:#424242;stroke-width:0.5;"/><rect x="127.108" y="387.262" width="4" height="2" fill="#FFF" style="stroke:#424242;stroke-width:0.5;"/><rect x="127.108" y="391.262" width="4" height="2" fill="#FFF" style="stroke:#424242;stroke-width:0.5;"/><text x="73.72" y="414.159" fill="#000" font-size="13" textLength="50.388" font-weight="700">SIGHOR</text><text x="73.72" y="429.727" fill="#000" font-size="11" textLength="44.825">Horarios</text></g><!--entity CARGA--><g class="entity" data-qualified-name="Organizaci.n docente.CARGA" id="ent0014" data-source-line="31"><rect x="31.6" y="282.262" width="144.631" height="62.688" fill="#FFF" style="stroke:#424242;stroke-width:0.5;" rx="2.5" ry="2.5"/><rect x="156.231" y="287.262" width="15" height="10" fill="#FFF" style="stroke:#424242;stroke-width:0.5;"/><rect x="154.231" y="289.262" width="4" height="2" fill="#FFF" style="stroke:#424242;stroke-width:0.5;"/><rect x="154.231" y="293.262" width="4" height="2" fill="#FFF" style="stroke:#424242;stroke-width:0.5;"/><text x="46.6" y="316.159" fill="#000" font-size="13" textLength="44.278" font-weight="700">CARGA</text><text x="46.6" y="331.727" fill="#000" font-size="11" textLength="104.631">Carga de evaluación</text></g><!--entity CITA--><g class="entity" data-qualified-name="Bibliograf.a.CITA" id="ent0016" data-source-line="35"><rect x="22" y="520.262" width="163.837" height="62.688" fill="#FFF" style="stroke:#424242;stroke-width:0.5;" rx="2.5" ry="2.5"/><rect x="165.837" y="525.262" width="15" height="10" fill="#FFF" style="stroke:#424242;stroke-width:0.5;"/><rect x="163.837" y="527.262" width="4" height="2" fill="#FFF" style="stroke:#424242;stroke-width:0.5;"/><rect x="163.837" y="531.262" width="4" height="2" fill="#FFF" style="stroke:#424242;stroke-width:0.5;"/><text x="37" y="554.159" fill="#000" font-size="13" textLength="29.9" font-weight="700">CITA</text><text x="37" y="569.727" fill="#000" font-size="11" textLength="123.837">Catálogo de bibliografía</text></g><!--entity CELDA--><g class="entity" data-qualified-name="CELDA" id="ent0001" data-source-line="11"><rect x="245.84" y="282.262" width="119.089" height="62.688" fill="#FFF" style="stroke:#424242;stroke-width:0.5;" rx="2.5" ry="2.5"/><rect x="344.929" y="287.262" width="15" height="10" fill="#FFF" style="stroke:#424242;stroke-width:0.5;"/><rect x="342.929" y="289.262" width="4" height="2" fill="#FFF" style="stroke:#424242;stroke-width:0.5;"/><rect x="342.929" y="293.262" width="4" height="2" fill="#FFF" style="stroke:#424242;stroke-width:0.5;"/><text x="260.84" y="316.159" fill="#000" font-size="13" textLength="41.405" font-weight="700">CELDA</text><text x="260.84" y="331.727" fill="#000" font-size="11" textLength="79.089">Guías docentes</text></g><!--link CELDA to MERITOS--><g class="link" data-entity-1="ent0001" data-entity-2="ent0003" id="lnk17" data-source-line="38" data-link-type="association"><path d="M351.62,281.832 C384.25,258.922 428.1,228.132 460.68,205.242" style="stroke:#181818;stroke-width:1;" fill="none" id="CELDA-MERITOS"/></g><!--link CELDA to ACTIVITAT--><g class="link" data-entity-1="ent0001" data-entity-2="ent0004" id="lnk18" data-source-line="39" data-link-type="association"><path d="M315.08,281.912 C327.79,240.862 355.06,169.272 400.93,124.602 C412.15,113.672 426.27,104.852 440.47,97.872" style="stroke:#181818;stroke-width:1;" fill="none" id="CELDA-ACTIVITAT"/></g><!--link CELDA to VITRINA--><g class="link" data-entity-1="ent0001" data-entity-2="ent0006" id="lnk19" data-source-line="40" data-link-type="association"><path d="M320.29,345.422 C335.89,377.982 363.91,428.252 400.93,460.602 C414.84,472.762 432.29,482.512 448.94,490.012" style="stroke:#181818;stroke-width:1;" fill="none" id="CELDA-VITRINA"/></g><!--link CELDA to ASISTE--><g class="link" data-entity-1="ent0001" data-entity-2="ent0007" id="lnk20" data-source-line="41" data-link-type="association"><path d="M365.2,344.562 C376.99,350.632 389.32,356.882 400.93,362.602 C420.39,372.192 442.08,382.412 460.66,391.022" style="stroke:#181818;stroke-width:1;" fill="none" id="CELDA-ASISTE"/></g><!--link CELDA to FEDATARIO--><g class="link" data-entity-1="ent0001" data-entity-2="ent0008" id="lnk21" data-source-line="42" data-link-type="association"><path d="M365.39,313.602 C385.94,313.602 409.28,313.602 430.94,313.602" style="stroke:#181818;stroke-width:1;" fill="none" id="CELDA-FEDATARIO"/></g><!--link PRISMA to CELDA--><g class="link" data-entity-1="ent0010" data-entity-2="ent0001" id="lnk22" data-source-line="43" data-link-type="association"><path d="M150.18,205.372 C182.82,228.282 226.7,259.072 259.3,281.962" style="stroke:#181818;stroke-width:1;" fill="none" id="PRISMA-CELDA"/></g><!--link PULSO to CELDA--><g class="link" data-entity-1="ent0011" data-entity-2="ent0001" id="lnk23" data-source-line="44" data-link-type="association"><path d="M175.17,100.352 C187.69,106.902 199.9,114.922 209.84,124.602 C255.71,169.262 282.98,240.852 295.68,281.912" style="stroke:#181818;stroke-width:1;" fill="none" id="PULSO-CELDA"/></g><!--link SIGHOR to CELDA--><g class="link" data-entity-1="ent0013" data-entity-2="ent0001" id="lnk24" data-source-line="45" data-link-type="association"><path d="M149.53,391.262 C168.24,382.602 190.18,372.282 209.84,362.602 C221.45,356.882 233.78,350.632 245.56,344.562" style="stroke:#181818;stroke-width:1;" fill="none" id="SIGHOR-CELDA"/></g><!--link CARGA to CELDA--><g class="link" data-entity-1="ent0014" data-entity-2="ent0001" id="lnk25" data-source-line="46" data-link-type="association"><path d="M176.65,313.602 C199.21,313.602 223.85,313.602 245.42,313.602" style="stroke:#181818;stroke-width:1;" fill="none" id="CARGA-CELDA"/></g><!--link CITA to CELDA--><g class="link" data-entity-1="ent0016" data-entity-2="ent0001" id="lnk26" data-source-line="47" data-link-type="association"><path d="M145.63,519.902 C166.11,502.902 190.6,480.902 209.84,458.602 C240.85,422.642 269.59,375.842 287.06,345.272" style="stroke:#181818;stroke-width:1;" fill="none" id="CITA-CELDA"/></g><?plantuml-src TLFDJkCm4BxdAKRbZ51tEQsgIY6a9H9iKPBbnCMDtM2HUYB7GGih7eO7sDFUzjeNOvoa-It9QSRp_Snu_2IvWC88BT2yviB9nCw0GT0oVJB0fHQ9aQWSftYMAcUQxI71VOvAA0D_780hbZod6al5FSnGmzcg-km9QYvqaxtyPd_Ahb2PIBu9c7zttXsd8vijjalFlxrs5nVRvQDQ55JqOpvVhil3NrO0nuIgHB6ui0VB6L2kAdUSd2omLC3iNkDE5AWPnrbbRiX-vuT1l8b6_FxlN71fkO6B3FA6ew_J02U4hXS73q7inYDAbsRs8ZdZHzTziXPass-jkrcvL-GRNY4__DzcCZdP0W73uESN8sg0R32Z1Z7r7WLHx8-D5v9sGIMI3HnNfHE6bN_jncuOR4Oadj16xiX78W__50qLqifVdxB53eRWiSnExLJZzs4GtOtx3XGd6OvQ55OcgU5zdHesPVjr6urj-oefHM6-MBKACJ2xqIbJyktOPOqvPJqArZURSAHsGrkg9Guqwi89tdF3zRXpZv6wxLcyiAoiFGnUXiKCx5v9sWrCDTlHNPoowT5EJbJCuIF35AtIjaymq2AWbQfU8voVjy-bJNGhtwQEQzdLr4lMnjs6r7TeS_LxhwwY2-kfTN7LUYyatIxw1000?></g></svg>